<mxfile host="app.diagrams.net" modified="2020-12-17T21:58:48.274Z" agent="5.0 (Windows NT 6.1; Win64; x64) AppleWebKit/537.36 (KHTML, like Gecko) Chrome/87.0.4280.101 Safari/537.36" etag="cJ2a6IYen8VUTdsQQ7GW" version="14.0.5" type="github">
  <diagram id="R2lEEEUBdFMjLlhIrx00" name="Page-1">
    <mxGraphModel dx="526" dy="496" grid="1" gridSize="10" guides="1" tooltips="1" connect="1" arrows="1" fold="1" page="1" pageScale="1" pageWidth="850" pageHeight="1100" background="#114B5F" math="0" shadow="0" extFonts="Permanent Marker^https://fonts.googleapis.com/css?family=Permanent+Marker">
      <root>
        <mxCell id="0" />
        <mxCell id="1" parent="0" />
        <mxCell id="foW2yUO5fyfnBP0rIWvZ-8" value="" style="edgeStyle=orthogonalEdgeStyle;rounded=1;sketch=0;orthogonalLoop=1;jettySize=auto;html=1;fillColor=#F45B69;fontColor=#E4FDE1;strokeColor=#028090;endArrow=none;endFill=0;" parent="1" source="foW2yUO5fyfnBP0rIWvZ-1" target="foW2yUO5fyfnBP0rIWvZ-7" edge="1">
          <mxGeometry relative="1" as="geometry" />
        </mxCell>
        <mxCell id="foW2yUO5fyfnBP0rIWvZ-1" value="Cliente" style="rounded=0;whiteSpace=wrap;html=1;sketch=0;" parent="1" vertex="1">
          <mxGeometry x="140" y="70" width="120" height="60" as="geometry" />
        </mxCell>
        <mxCell id="foW2yUO5fyfnBP0rIWvZ-2" value="( ) &lt;u&gt;cd_Cliente&lt;/u&gt;&lt;br&gt;( ) nm_Cliente&lt;br&gt;( ) ds_Endereco&amp;nbsp;" style="text;html=1;align=left;verticalAlign=middle;resizable=0;points=[];autosize=1;fontColor=#E4FDE1;" parent="1" vertex="1">
          <mxGeometry x="45" y="75" width="100" height="50" as="geometry" />
        </mxCell>
        <mxCell id="foW2yUO5fyfnBP0rIWvZ-11" value="" style="edgeStyle=orthogonalEdgeStyle;rounded=1;sketch=0;orthogonalLoop=1;jettySize=auto;html=1;strokeColor=#028090;fillColor=#F45B69;fontColor=#E4FDE1;endArrow=none;endFill=0;" parent="1" source="foW2yUO5fyfnBP0rIWvZ-7" target="foW2yUO5fyfnBP0rIWvZ-10" edge="1">
          <mxGeometry relative="1" as="geometry" />
        </mxCell>
        <mxCell id="foW2yUO5fyfnBP0rIWvZ-7" value="Faz" style="rhombus;whiteSpace=wrap;html=1;rounded=0;sketch=0;" parent="1" vertex="1">
          <mxGeometry x="140" y="200" width="120" height="80" as="geometry" />
        </mxCell>
        <mxCell id="foW2yUO5fyfnBP0rIWvZ-9" value="1:N" style="text;html=1;align=center;verticalAlign=middle;resizable=0;points=[];autosize=1;fontColor=#E4FDE1;" parent="1" vertex="1">
          <mxGeometry x="260" y="230" width="30" height="20" as="geometry" />
        </mxCell>
        <mxCell id="foW2yUO5fyfnBP0rIWvZ-14" value="" style="edgeStyle=orthogonalEdgeStyle;rounded=1;sketch=0;orthogonalLoop=1;jettySize=auto;html=1;strokeColor=#028090;fillColor=#F45B69;fontColor=#E4FDE1;endArrow=none;endFill=0;" parent="1" source="foW2yUO5fyfnBP0rIWvZ-10" target="foW2yUO5fyfnBP0rIWvZ-13" edge="1">
          <mxGeometry relative="1" as="geometry" />
        </mxCell>
        <mxCell id="foW2yUO5fyfnBP0rIWvZ-10" value="Apólice" style="whiteSpace=wrap;html=1;rounded=0;sketch=0;" parent="1" vertex="1">
          <mxGeometry x="140" y="370" width="120" height="60" as="geometry" />
        </mxCell>
        <mxCell id="foW2yUO5fyfnBP0rIWvZ-12" value="( ) &lt;u&gt;cd_Apólice&lt;/u&gt;&lt;br&gt;( ) vl_Apólice" style="text;html=1;align=left;verticalAlign=middle;resizable=0;points=[];autosize=1;fontColor=#E4FDE1;" parent="1" vertex="1">
          <mxGeometry x="50" y="385" width="90" height="30" as="geometry" />
        </mxCell>
        <mxCell id="foW2yUO5fyfnBP0rIWvZ-16" value="" style="edgeStyle=orthogonalEdgeStyle;rounded=1;sketch=0;orthogonalLoop=1;jettySize=auto;html=1;strokeColor=#028090;fillColor=#F45B69;fontColor=#E4FDE1;endArrow=none;endFill=0;" parent="1" source="foW2yUO5fyfnBP0rIWvZ-13" target="foW2yUO5fyfnBP0rIWvZ-15" edge="1">
          <mxGeometry relative="1" as="geometry" />
        </mxCell>
        <mxCell id="foW2yUO5fyfnBP0rIWvZ-13" value="Possui" style="rhombus;whiteSpace=wrap;html=1;rounded=0;sketch=0;" parent="1" vertex="1">
          <mxGeometry x="340" y="360" width="120" height="80" as="geometry" />
        </mxCell>
        <mxCell id="foW2yUO5fyfnBP0rIWvZ-18" value="" style="edgeStyle=orthogonalEdgeStyle;rounded=1;sketch=0;orthogonalLoop=1;jettySize=auto;html=1;strokeColor=#028090;fillColor=#F45B69;fontColor=#E4FDE1;endArrow=none;endFill=0;" parent="1" source="foW2yUO5fyfnBP0rIWvZ-15" target="foW2yUO5fyfnBP0rIWvZ-17" edge="1">
          <mxGeometry relative="1" as="geometry" />
        </mxCell>
        <mxCell id="foW2yUO5fyfnBP0rIWvZ-15" value="Carro" style="whiteSpace=wrap;html=1;rounded=0;sketch=0;" parent="1" vertex="1">
          <mxGeometry x="540" y="370" width="120" height="60" as="geometry" />
        </mxCell>
        <mxCell id="foW2yUO5fyfnBP0rIWvZ-20" value="" style="edgeStyle=orthogonalEdgeStyle;rounded=1;sketch=0;orthogonalLoop=1;jettySize=auto;html=1;strokeColor=#028090;fillColor=#F45B69;fontColor=#E4FDE1;endArrow=none;endFill=0;" parent="1" source="foW2yUO5fyfnBP0rIWvZ-17" target="foW2yUO5fyfnBP0rIWvZ-19" edge="1">
          <mxGeometry relative="1" as="geometry" />
        </mxCell>
        <mxCell id="foW2yUO5fyfnBP0rIWvZ-17" value="Tem" style="rhombus;whiteSpace=wrap;html=1;rounded=0;sketch=0;" parent="1" vertex="1">
          <mxGeometry x="540" y="200" width="120" height="80" as="geometry" />
        </mxCell>
        <mxCell id="foW2yUO5fyfnBP0rIWvZ-19" value="Acidente" style="shape=process;whiteSpace=wrap;html=1;backgroundOutline=1;rounded=0;sketch=0;glass=0;" parent="1" vertex="1">
          <mxGeometry x="540" y="70" width="120" height="60" as="geometry" />
        </mxCell>
        <mxCell id="foW2yUO5fyfnBP0rIWvZ-21" value="1:1" style="text;html=1;align=center;verticalAlign=middle;resizable=0;points=[];autosize=1;fontColor=#E4FDE1;" parent="1" vertex="1">
          <mxGeometry x="385" y="440" width="30" height="20" as="geometry" />
        </mxCell>
        <mxCell id="foW2yUO5fyfnBP0rIWvZ-22" value="( ) &lt;u&gt;cd_Carro&lt;/u&gt;&lt;br&gt;( ) ds_Marca" style="text;html=1;align=left;verticalAlign=middle;resizable=0;points=[];autosize=1;fontColor=#E4FDE1;" parent="1" vertex="1">
          <mxGeometry x="670" y="385" width="80" height="30" as="geometry" />
        </mxCell>
        <mxCell id="foW2yUO5fyfnBP0rIWvZ-23" value="1:N" style="text;html=1;align=center;verticalAlign=middle;resizable=0;points=[];autosize=1;fontColor=#E4FDE1;" parent="1" vertex="1">
          <mxGeometry x="510" y="230" width="30" height="20" as="geometry" />
        </mxCell>
        <mxCell id="foW2yUO5fyfnBP0rIWvZ-24" value="( ) &lt;u&gt;cd_Acidente&lt;/u&gt;&lt;br&gt;( ) dt_Acidente&lt;br&gt;&lt;div&gt;&lt;span&gt;( ) hr_Acidente&lt;/span&gt;&lt;/div&gt;( ) ds_Local" style="text;html=1;align=left;verticalAlign=middle;resizable=0;points=[];autosize=1;fontColor=#E4FDE1;" parent="1" vertex="1">
          <mxGeometry x="670" y="70" width="100" height="60" as="geometry" />
        </mxCell>
      </root>
    </mxGraphModel>
  </diagram>
</mxfile>
